<?xml version="1.0" encoding="UTF-8"?>
<!DOCTYPE svg PUBLIC "-//W3C//DTD SVG 1.1//EN" "http://www.w3.org/Graphics/SVG/1.1/DTD/svg11.dtd">
<svg width="146mm" height="90mm" viewBox="0 0 14600 9000" version="1.1" xmlns="http://www.w3.org/2000/svg" xmlns:xlink="http://www.w3.org/1999/xlink" stroke-width="28.222" stroke-linejoin="round" xml:space="preserve">
 <path fill="rgb(255,255,255)" stroke="none" d="M 7275,8999 L 0,8999 0,0 14550,0 14550,8999 7275,8999 Z"/>
 <path fill="none" stroke="rgb(179,179,179)" stroke-linejoin="round" d="M 7939,7559 L 1937,7559 1937,1136 13941,1136 13941,7559 7939,7559 Z"/>
 <path fill="none" stroke="rgb(179,179,179)" stroke-linejoin="round" d="M 1936,1135 L 1936,7558"/>
 <path fill="none" stroke="rgb(179,179,179)" stroke-linejoin="round" d="M 4337,1135 L 4337,7558"/>
 <path fill="none" stroke="rgb(179,179,179)" stroke-linejoin="round" d="M 6738,1135 L 6738,7558"/>
 <path fill="none" stroke="rgb(179,179,179)" stroke-linejoin="round" d="M 9138,1135 L 9138,7558"/>
 <path fill="none" stroke="rgb(179,179,179)" stroke-linejoin="round" d="M 11539,1135 L 11539,7558"/>
 <path fill="none" stroke="rgb(179,179,179)" stroke-linejoin="round" d="M 13940,1135 L 13940,7558"/>
 <path fill="none" stroke="rgb(179,179,179)" stroke-linejoin="round" d="M 13940,7558 L 1936,7558"/>
 <path fill="none" stroke="rgb(179,179,179)" stroke-linejoin="round" d="M 13940,6487 L 1936,6487"/>
 <path fill="none" stroke="rgb(179,179,179)" stroke-linejoin="round" d="M 13940,5416 L 1936,5416"/>
 <path fill="none" stroke="rgb(179,179,179)" stroke-linejoin="round" d="M 13940,4347 L 1936,4347"/>
 <path fill="none" stroke="rgb(179,179,179)" stroke-linejoin="round" d="M 13940,3276 L 1936,3276"/>
 <path fill="none" stroke="rgb(179,179,179)" stroke-linejoin="round" d="M 13940,2205 L 1936,2205"/>
 <path fill="none" stroke="rgb(179,179,179)" stroke-linejoin="round" d="M 13940,1135 L 1936,1135"/>
 <path fill="none" stroke="rgb(179,179,179)" stroke-linejoin="round" d="M 1936,7708 L 1936,7558"/>
 <path fill="none" stroke="rgb(179,179,179)" stroke-linejoin="round" d="M 1936,7708 L 1936,7558"/>
 <path fill="none" stroke="rgb(179,179,179)" stroke-linejoin="round" d="M 4337,7708 L 4337,7558"/>
 <path fill="none" stroke="rgb(179,179,179)" stroke-linejoin="round" d="M 4337,7708 L 4337,7558"/>
 <path fill="none" stroke="rgb(179,179,179)" stroke-linejoin="round" d="M 6738,7708 L 6738,7558"/>
 <path fill="none" stroke="rgb(179,179,179)" stroke-linejoin="round" d="M 6738,7708 L 6738,7558"/>
 <path fill="none" stroke="rgb(179,179,179)" stroke-linejoin="round" d="M 9139,7708 L 9139,7558"/>
 <path fill="none" stroke="rgb(179,179,179)" stroke-linejoin="round" d="M 9139,7708 L 9139,7558"/>
 <path fill="none" stroke="rgb(179,179,179)" stroke-linejoin="round" d="M 11540,7708 L 11540,7558"/>
 <path fill="none" stroke="rgb(179,179,179)" stroke-linejoin="round" d="M 11540,7708 L 11540,7558"/>
 <path fill="none" stroke="rgb(179,179,179)" stroke-linejoin="round" d="M 13941,7708 L 13941,7558"/>
 <path fill="none" stroke="rgb(179,179,179)" stroke-linejoin="round" d="M 13941,7708 L 13941,7558"/>
 <path fill="none" stroke="rgb(179,179,179)" stroke-linejoin="round" d="M 1936,7558 L 13940,7558"/>
 <path fill="none" stroke="rgb(179,179,179)" stroke-linejoin="round" d="M 1786,7558 L 1936,7558"/>
 <path fill="none" stroke="rgb(179,179,179)" stroke-linejoin="round" d="M 1786,7558 L 1936,7558"/>
 <path fill="none" stroke="rgb(179,179,179)" stroke-linejoin="round" d="M 1786,6487 L 1936,6487"/>
 <path fill="none" stroke="rgb(179,179,179)" stroke-linejoin="round" d="M 1786,6487 L 1936,6487"/>
 <path fill="none" stroke="rgb(179,179,179)" stroke-linejoin="round" d="M 1786,5416 L 1936,5416"/>
 <path fill="none" stroke="rgb(179,179,179)" stroke-linejoin="round" d="M 1786,5416 L 1936,5416"/>
 <path fill="none" stroke="rgb(179,179,179)" stroke-linejoin="round" d="M 1786,4347 L 1936,4347"/>
 <path fill="none" stroke="rgb(179,179,179)" stroke-linejoin="round" d="M 1786,4347 L 1936,4347"/>
 <path fill="none" stroke="rgb(179,179,179)" stroke-linejoin="round" d="M 1786,3276 L 1936,3276"/>
 <path fill="none" stroke="rgb(179,179,179)" stroke-linejoin="round" d="M 1786,3276 L 1936,3276"/>
 <path fill="none" stroke="rgb(179,179,179)" stroke-linejoin="round" d="M 1786,2205 L 1936,2205"/>
 <path fill="none" stroke="rgb(179,179,179)" stroke-linejoin="round" d="M 1786,2205 L 1936,2205"/>
 <path fill="none" stroke="rgb(179,179,179)" stroke-linejoin="round" d="M 1786,1135 L 1936,1135"/>
 <path fill="none" stroke="rgb(179,179,179)" stroke-linejoin="round" d="M 1786,1135 L 1936,1135"/>
 <path fill="none" stroke="rgb(179,179,179)" stroke-linejoin="round" d="M 1936,7558 L 1936,1135"/>
 <path fill="none" stroke="rgb(0,169,51)" stroke-width="25" stroke-linejoin="round" d="M 1936,6243 L 1949,6243 1963,6243 2010,6243 2377,6243 3307,6243"/>
 <path fill="none" stroke="rgb(255,66,14)" stroke-width="25" stroke-linejoin="round" d="M 5375,2770 L 5778,2770 5977,2770 6287,3815 6647,3835 6980,4048 7372,5310 7738,5227 8082,5484 8472,5602 8835,5724 9216,5655 9593,5571 9954,6250 10327,6120 10702,6395 11086,6429 11460,6552 11834,6165 12214,6720"/>
 <path fill="none" stroke="rgb(0,69,134)" stroke-width="25" stroke-linejoin="round" d="M 8914,2824 L 8930,3699 8939,2569 8944,3630 8949,3935 8952,2614 8960,2614 8966,2361 8977,2614 9001,3281 9555,3863 9585,3312 9927,4002 10222,4046 10434,5236 10792,5313 11142,4000 11506,4471 11868,4033"/>
 <text class="TextShape"><tspan class="TextParagraph" font-family="DejaVu Sans, sans-serif" font-size="353px" font-weight="400"><tspan class="TextPosition" x="1417" y="8147"><tspan fill="rgb(0,0,0)" stroke="none">0.001</tspan></tspan></tspan></text>
 <text class="TextShape"><tspan class="TextParagraph" font-family="DejaVu Sans, sans-serif" font-size="353px" font-weight="400"><tspan class="TextPosition" x="3935" y="8147"><tspan fill="rgb(0,0,0)" stroke="none">0.01</tspan></tspan></tspan></text>
 <text class="TextShape"><tspan class="TextParagraph" font-family="DejaVu Sans, sans-serif" font-size="353px" font-weight="400"><tspan class="TextPosition" x="6452" y="8147"><tspan fill="rgb(0,0,0)" stroke="none">0.1</tspan></tspan></tspan></text>
 <text class="TextShape"><tspan class="TextParagraph" font-family="DejaVu Sans, sans-serif" font-size="353px" font-weight="400"><tspan class="TextPosition" x="9023" y="8147"><tspan fill="rgb(0,0,0)" stroke="none">1</tspan></tspan></tspan></text>
 <text class="TextShape"><tspan class="TextParagraph" font-family="DejaVu Sans, sans-serif" font-size="353px" font-weight="400"><tspan class="TextPosition" x="11308" y="8147"><tspan fill="rgb(0,0,0)" stroke="none">10</tspan></tspan></tspan></text>
 <text class="TextShape"><tspan class="TextParagraph" font-family="DejaVu Sans, sans-serif" font-size="353px" font-weight="400"><tspan class="TextPosition" x="13592" y="8147"><tspan fill="rgb(0,0,0)" stroke="none">100</tspan></tspan></tspan></text>
 <text class="TextShape"><tspan class="TextParagraph" font-family="DejaVu Sans, sans-serif" font-size="353px" font-weight="400"><tspan class="TextPosition" x="1114" y="7686"><tspan fill="rgb(0,0,0)" stroke="none">0.5</tspan></tspan></tspan></text>
 <text class="TextShape"><tspan class="TextParagraph" font-family="DejaVu Sans, sans-serif" font-size="353px" font-weight="400"><tspan class="TextPosition" x="882" y="6615"><tspan fill="rgb(0,0,0)" stroke="none">0.55</tspan></tspan></tspan></text>
 <text class="TextShape"><tspan class="TextParagraph" font-family="DejaVu Sans, sans-serif" font-size="353px" font-weight="400"><tspan class="TextPosition" x="1114" y="5544"><tspan fill="rgb(0,0,0)" stroke="none">0.6</tspan></tspan></tspan></text>
 <text class="TextShape"><tspan class="TextParagraph" font-family="DejaVu Sans, sans-serif" font-size="353px" font-weight="400"><tspan class="TextPosition" x="882" y="4474"><tspan fill="rgb(0,0,0)" stroke="none">0.65</tspan></tspan></tspan></text>
 <text class="TextShape"><tspan class="TextParagraph" font-family="DejaVu Sans, sans-serif" font-size="353px" font-weight="400"><tspan class="TextPosition" x="1114" y="3403"><tspan fill="rgb(0,0,0)" stroke="none">0.7</tspan></tspan></tspan></text>
 <text class="TextShape"><tspan class="TextParagraph" font-family="DejaVu Sans, sans-serif" font-size="353px" font-weight="400"><tspan class="TextPosition" x="882" y="2332"><tspan fill="rgb(0,0,0)" stroke="none">0.75</tspan></tspan></tspan></text>
 <text class="TextShape"><tspan class="TextParagraph" font-family="DejaVu Sans, sans-serif" font-size="353px" font-weight="400"><tspan class="TextPosition" x="1114" y="1262"><tspan fill="rgb(0,0,0)" stroke="none">0.8</tspan></tspan></tspan></text>
 <text class="TextShape"><tspan class="TextParagraph" font-family="DejaVu Sans, sans-serif" font-size="459px" font-weight="400"><tspan class="TextPosition" x="3433" y="877"><tspan fill="rgb(0,0,0)" stroke="none">Performance on sklearn diabetes</tspan></tspan></tspan></text>
 <path fill="rgb(255,255,255)" stroke="none" d="M 12164,2593 L 10639,2593 10639,1267 13689,1267 13689,2593 12164,2593 Z"/>
 <path fill="none" stroke="rgb(0,69,134)" stroke-width="25" stroke-linejoin="round" d="M 10961,1491 L 11761,1491"/>
 <path fill="none" stroke="rgb(255,66,14)" stroke-width="25" stroke-linejoin="round" d="M 10961,1928 L 11761,1928"/>
 <path fill="none" stroke="rgb(0,169,51)" stroke-width="25" stroke-linejoin="round" d="M 10961,2365 L 11761,2365"/>
 <text class="TextShape"><tspan class="TextParagraph" font-family="DejaVu Sans, sans-serif" font-size="353px" font-weight="400"><tspan class="TextPosition" x="11861" y="1618"><tspan fill="rgb(0,0,0)" stroke="none">gplearn</tspan></tspan></tspan></text>
 <text class="TextShape"><tspan class="TextParagraph" font-family="DejaVu Sans, sans-serif" font-size="353px" font-weight="400"><tspan class="TextPosition" x="11861" y="2055"><tspan fill="rgb(0,0,0)" stroke="none">SymReg</tspan></tspan></tspan></text>
 <text class="TextShape"><tspan class="TextParagraph" font-family="DejaVu Sans, sans-serif" font-size="353px" font-weight="400"><tspan class="TextPosition" x="11861" y="2492"><tspan fill="rgb(0,0,0)" stroke="none">linear</tspan></tspan></tspan></text>
 <text class="TextShape"><tspan class="TextParagraph" font-family="DejaVu Sans, sans-serif" font-size="318px" font-weight="400"><tspan class="TextPosition" x="5682" y="8806"><tspan fill="rgb(0,0,0)" stroke="none">Training time (seconds)</tspan></tspan></tspan></text>
 <text class="TextShape" transform="rotate(-90 565 5404)"><tspan class="TextParagraph" font-family="DejaVu Sans, sans-serif" font-size="318px" font-weight="400"><tspan class="TextPosition" x="565" y="5404"><tspan fill="rgb(0,0,0)" stroke="none">Error (MAE)</tspan></tspan></tspan></text>
</svg>