<?xml version="1.0" encoding="UTF-8"?>
<!DOCTYPE svg PUBLIC "-//W3C//DTD SVG 1.1//EN" "http://www.w3.org/Graphics/SVG/1.1/DTD/svg11.dtd">
<svg width="146mm" height="90mm" viewBox="0 0 14600 9000" version="1.1" xmlns="http://www.w3.org/2000/svg" xmlns:xlink="http://www.w3.org/1999/xlink" stroke-width="28.222" stroke-linejoin="round" xml:space="preserve">
 <path fill="rgb(255,255,255)" stroke="none" d="M 7275,8999 L 0,8999 0,0 14550,0 14550,8999 7275,8999 Z"/>
 <path fill="none" stroke="rgb(179,179,179)" stroke-linejoin="round" d="M 7939,7559 L 1937,7559 1937,1136 13941,1136 13941,7559 7939,7559 Z"/>
 <path fill="none" stroke="rgb(179,179,179)" stroke-linejoin="round" d="M 1936,1135 L 1936,7558"/>
 <path fill="none" stroke="rgb(179,179,179)" stroke-linejoin="round" d="M 3937,1135 L 3937,7558"/>
 <path fill="none" stroke="rgb(179,179,179)" stroke-linejoin="round" d="M 5938,1135 L 5938,7558"/>
 <path fill="none" stroke="rgb(179,179,179)" stroke-linejoin="round" d="M 7938,1135 L 7938,7558"/>
 <path fill="none" stroke="rgb(179,179,179)" stroke-linejoin="round" d="M 9939,1135 L 9939,7558"/>
 <path fill="none" stroke="rgb(179,179,179)" stroke-linejoin="round" d="M 11940,1135 L 11940,7558"/>
 <path fill="none" stroke="rgb(179,179,179)" stroke-linejoin="round" d="M 13941,1135 L 13941,7558"/>
 <path fill="none" stroke="rgb(179,179,179)" stroke-linejoin="round" d="M 13941,7558 L 1937,7558"/>
 <path fill="none" stroke="rgb(179,179,179)" stroke-linejoin="round" d="M 13941,6755 L 1937,6755"/>
 <path fill="none" stroke="rgb(179,179,179)" stroke-linejoin="round" d="M 13941,5952 L 1937,5952"/>
 <path fill="none" stroke="rgb(179,179,179)" stroke-linejoin="round" d="M 13941,5149 L 1937,5149"/>
 <path fill="none" stroke="rgb(179,179,179)" stroke-linejoin="round" d="M 13941,4347 L 1937,4347"/>
 <path fill="none" stroke="rgb(179,179,179)" stroke-linejoin="round" d="M 13941,3544 L 1937,3544"/>
 <path fill="none" stroke="rgb(179,179,179)" stroke-linejoin="round" d="M 13941,2741 L 1937,2741"/>
 <path fill="none" stroke="rgb(179,179,179)" stroke-linejoin="round" d="M 13941,1938 L 1937,1938"/>
 <path fill="none" stroke="rgb(179,179,179)" stroke-linejoin="round" d="M 13941,1135 L 1937,1135"/>
 <path fill="none" stroke="rgb(179,179,179)" stroke-linejoin="round" d="M 1936,7708 L 1936,7558"/>
 <path fill="none" stroke="rgb(179,179,179)" stroke-linejoin="round" d="M 1936,7708 L 1936,7558"/>
 <path fill="none" stroke="rgb(179,179,179)" stroke-linejoin="round" d="M 3937,7708 L 3937,7558"/>
 <path fill="none" stroke="rgb(179,179,179)" stroke-linejoin="round" d="M 3937,7708 L 3937,7558"/>
 <path fill="none" stroke="rgb(179,179,179)" stroke-linejoin="round" d="M 5938,7708 L 5938,7558"/>
 <path fill="none" stroke="rgb(179,179,179)" stroke-linejoin="round" d="M 5938,7708 L 5938,7558"/>
 <path fill="none" stroke="rgb(179,179,179)" stroke-linejoin="round" d="M 7938,7708 L 7938,7558"/>
 <path fill="none" stroke="rgb(179,179,179)" stroke-linejoin="round" d="M 7938,7708 L 7938,7558"/>
 <path fill="none" stroke="rgb(179,179,179)" stroke-linejoin="round" d="M 9939,7708 L 9939,7558"/>
 <path fill="none" stroke="rgb(179,179,179)" stroke-linejoin="round" d="M 9939,7708 L 9939,7558"/>
 <path fill="none" stroke="rgb(179,179,179)" stroke-linejoin="round" d="M 11940,7708 L 11940,7558"/>
 <path fill="none" stroke="rgb(179,179,179)" stroke-linejoin="round" d="M 11940,7708 L 11940,7558"/>
 <path fill="none" stroke="rgb(179,179,179)" stroke-linejoin="round" d="M 13941,7708 L 13941,7558"/>
 <path fill="none" stroke="rgb(179,179,179)" stroke-linejoin="round" d="M 13941,7708 L 13941,7558"/>
 <path fill="none" stroke="rgb(179,179,179)" stroke-linejoin="round" d="M 1937,7558 L 13941,7558"/>
 <path fill="none" stroke="rgb(179,179,179)" stroke-linejoin="round" d="M 1787,7558 L 1937,7558"/>
 <path fill="none" stroke="rgb(179,179,179)" stroke-linejoin="round" d="M 1787,7558 L 1937,7558"/>
 <path fill="none" stroke="rgb(179,179,179)" stroke-linejoin="round" d="M 1787,6755 L 1937,6755"/>
 <path fill="none" stroke="rgb(179,179,179)" stroke-linejoin="round" d="M 1787,6755 L 1937,6755"/>
 <path fill="none" stroke="rgb(179,179,179)" stroke-linejoin="round" d="M 1787,5952 L 1937,5952"/>
 <path fill="none" stroke="rgb(179,179,179)" stroke-linejoin="round" d="M 1787,5952 L 1937,5952"/>
 <path fill="none" stroke="rgb(179,179,179)" stroke-linejoin="round" d="M 1787,5149 L 1937,5149"/>
 <path fill="none" stroke="rgb(179,179,179)" stroke-linejoin="round" d="M 1787,5149 L 1937,5149"/>
 <path fill="none" stroke="rgb(179,179,179)" stroke-linejoin="round" d="M 1787,4347 L 1937,4347"/>
 <path fill="none" stroke="rgb(179,179,179)" stroke-linejoin="round" d="M 1787,4347 L 1937,4347"/>
 <path fill="none" stroke="rgb(179,179,179)" stroke-linejoin="round" d="M 1787,3544 L 1937,3544"/>
 <path fill="none" stroke="rgb(179,179,179)" stroke-linejoin="round" d="M 1787,3544 L 1937,3544"/>
 <path fill="none" stroke="rgb(179,179,179)" stroke-linejoin="round" d="M 1787,2741 L 1937,2741"/>
 <path fill="none" stroke="rgb(179,179,179)" stroke-linejoin="round" d="M 1787,2741 L 1937,2741"/>
 <path fill="none" stroke="rgb(179,179,179)" stroke-linejoin="round" d="M 1787,1938 L 1937,1938"/>
 <path fill="none" stroke="rgb(179,179,179)" stroke-linejoin="round" d="M 1787,1938 L 1937,1938"/>
 <path fill="none" stroke="rgb(179,179,179)" stroke-linejoin="round" d="M 1787,1135 L 1937,1135"/>
 <path fill="none" stroke="rgb(179,179,179)" stroke-linejoin="round" d="M 1787,1135 L 1937,1135"/>
 <path fill="none" stroke="rgb(179,179,179)" stroke-linejoin="round" d="M 1937,7558 L 1937,1135"/>
 <path fill="none" stroke="rgb(255,211,32)" stroke-width="25" stroke-linejoin="round" d="M 5527,5820 L 4010,5820 3941,5820 3924,5820 3949,5820 3939,5820 3966,5820 3928,5820 3921,5820 3959,5820 3940,5820 3929,5820"/>
 <path fill="none" stroke="rgb(255,66,14)" stroke-width="25" stroke-linejoin="round" d="M 12499,5821 L 12377,5823 12254,5813 12132,5815 12011,5822 11887,5839 11766,5813 11646,5813 11521,5812 11401,5819 11278,5791 11154,5799 11032,5779 10916,5779 10789,5775 10667,5781 10546,5778 10423,5775 10301,5768 10189,5758 10065,5748 9945,5751 9937,5751 9817,5743 9814,5743 9697,5667 9694,5667 9584,5744 9467,5635 9452,5627 9450,5635 9346,5619 9340,5619 9224,5674 9216,5674 9131,5670 9111,5670 9102,5670 9005,5450 8984,5450 8875,5510 8761,5368 8757,5322 8657,5413 8649,5413 8625,5413 8575,5193 8542,5193 8531,5193 8452,5302 8410,5229 8392,5229 8318,5241 8295,5241 8289,5241 8237,5193 8189,5193 8159,5193 8112,5047 8092,5047 8072,5047 7953,5326 7936,4897 7935,4907 7915,5326 7908,5326 7879,4907 7845,4907 7799,2514 7663,3167 7634,3167 7625,3167 7547,4733 7536,4733 7480,3839 7462,2687 7447,2687 7396,2687 7367,4899 7285,4764 7254,2941 7246,4764 7209,2941 7201,2941 7135,4824 7074,4824 7013,3107 6987,2105 6986,3107 6969,3107 6955,2105 6891,2893 6872,2893 6847,2893"/>
 <path fill="none" stroke="rgb(0,69,134)" stroke-width="25" stroke-linejoin="round" d="M 12748,5296 L 12487,5716 12484,4015 12455,4264 12422,4188 12421,3890 12404,4251 12399,3923 12379,3943 12370,4005 12367,3910 12343,3863 12340,3803 12338,4102 12327,3742 12323,3723 12316,3839 12301,3825 12284,3706 12281,3800"/>
 <text class="TextShape"><tspan class="TextParagraph" font-family="DejaVu Sans, sans-serif" font-size="353px" font-weight="400"><tspan class="TextPosition" x="1301" y="8147"><tspan fill="rgb(0,0,0)" stroke="none">0.0001</tspan></tspan></tspan></text>
 <text class="TextShape"><tspan class="TextParagraph" font-family="DejaVu Sans, sans-serif" font-size="353px" font-weight="400"><tspan class="TextPosition" x="3418" y="8147"><tspan fill="rgb(0,0,0)" stroke="none">0.001</tspan></tspan></tspan></text>
 <text class="TextShape"><tspan class="TextParagraph" font-family="DejaVu Sans, sans-serif" font-size="353px" font-weight="400"><tspan class="TextPosition" x="5536" y="8147"><tspan fill="rgb(0,0,0)" stroke="none">0.01</tspan></tspan></tspan></text>
 <text class="TextShape"><tspan class="TextParagraph" font-family="DejaVu Sans, sans-serif" font-size="353px" font-weight="400"><tspan class="TextPosition" x="7653" y="8147"><tspan fill="rgb(0,0,0)" stroke="none">0.1</tspan></tspan></tspan></text>
 <text class="TextShape"><tspan class="TextParagraph" font-family="DejaVu Sans, sans-serif" font-size="353px" font-weight="400"><tspan class="TextPosition" x="9823" y="8147"><tspan fill="rgb(0,0,0)" stroke="none">1</tspan></tspan></tspan></text>
 <text class="TextShape"><tspan class="TextParagraph" font-family="DejaVu Sans, sans-serif" font-size="353px" font-weight="400"><tspan class="TextPosition" x="11708" y="8147"><tspan fill="rgb(0,0,0)" stroke="none">10</tspan></tspan></tspan></text>
 <text class="TextShape"><tspan class="TextParagraph" font-family="DejaVu Sans, sans-serif" font-size="353px" font-weight="400"><tspan class="TextPosition" x="13592" y="8147"><tspan fill="rgb(0,0,0)" stroke="none">100</tspan></tspan></tspan></text>
 <text class="TextShape"><tspan class="TextParagraph" font-family="DejaVu Sans, sans-serif" font-size="353px" font-weight="400"><tspan class="TextPosition" x="1454" y="7686"><tspan fill="rgb(0,0,0)" stroke="none">0</tspan></tspan></tspan></text>
 <text class="TextShape"><tspan class="TextParagraph" font-family="DejaVu Sans, sans-serif" font-size="353px" font-weight="400"><tspan class="TextPosition" x="1221" y="6883"><tspan fill="rgb(0,0,0)" stroke="none">20</tspan></tspan></tspan></text>
 <text class="TextShape"><tspan class="TextParagraph" font-family="DejaVu Sans, sans-serif" font-size="353px" font-weight="400"><tspan class="TextPosition" x="1221" y="6080"><tspan fill="rgb(0,0,0)" stroke="none">40</tspan></tspan></tspan></text>
 <text class="TextShape"><tspan class="TextParagraph" font-family="DejaVu Sans, sans-serif" font-size="353px" font-weight="400"><tspan class="TextPosition" x="1221" y="5277"><tspan fill="rgb(0,0,0)" stroke="none">60</tspan></tspan></tspan></text>
 <text class="TextShape"><tspan class="TextParagraph" font-family="DejaVu Sans, sans-serif" font-size="353px" font-weight="400"><tspan class="TextPosition" x="1221" y="4474"><tspan fill="rgb(0,0,0)" stroke="none">80</tspan></tspan></tspan></text>
 <text class="TextShape"><tspan class="TextParagraph" font-family="DejaVu Sans, sans-serif" font-size="353px" font-weight="400"><tspan class="TextPosition" x="988" y="3671"><tspan fill="rgb(0,0,0)" stroke="none">100</tspan></tspan></tspan></text>
 <text class="TextShape"><tspan class="TextParagraph" font-family="DejaVu Sans, sans-serif" font-size="353px" font-weight="400"><tspan class="TextPosition" x="988" y="2868"><tspan fill="rgb(0,0,0)" stroke="none">120</tspan></tspan></tspan></text>
 <text class="TextShape"><tspan class="TextParagraph" font-family="DejaVu Sans, sans-serif" font-size="353px" font-weight="400"><tspan class="TextPosition" x="988" y="2065"><tspan fill="rgb(0,0,0)" stroke="none">140</tspan></tspan></tspan></text>
 <text class="TextShape"><tspan class="TextParagraph" font-family="DejaVu Sans, sans-serif" font-size="353px" font-weight="400"><tspan class="TextPosition" x="988" y="1262"><tspan fill="rgb(0,0,0)" stroke="none">160</tspan></tspan></tspan></text>
 <text class="TextShape"><tspan class="TextParagraph" font-family="DejaVu Sans, sans-serif" font-size="459px" font-weight="400"><tspan class="TextPosition" x="3433" y="877"><tspan fill="rgb(0,0,0)" stroke="none">Performance on sklearn diabetes</tspan></tspan></tspan></text>
 <path fill="rgb(255,255,255)" stroke="none" d="M 12129,2684 L 10604,2684 10604,1358 13654,1358 13654,2684 12129,2684 Z"/>
 <path fill="none" stroke="rgb(0,69,134)" stroke-width="25" stroke-linejoin="round" d="M 10990,1582 L 11790,1582"/>
 <path fill="none" stroke="rgb(255,66,14)" stroke-width="25" stroke-linejoin="round" d="M 10990,2019 L 11790,2019"/>
 <path fill="none" stroke="rgb(255,211,32)" stroke-width="25" stroke-linejoin="round" d="M 10990,2456 L 11790,2456"/>
 <text class="TextShape"><tspan class="TextParagraph" font-family="DejaVu Sans, sans-serif" font-size="353px" font-weight="400"><tspan class="TextPosition" x="11890" y="1709"><tspan fill="rgb(0,0,0)" stroke="none">gplearn</tspan></tspan></tspan></text>
 <text class="TextShape"><tspan class="TextParagraph" font-family="DejaVu Sans, sans-serif" font-size="353px" font-weight="400"><tspan class="TextPosition" x="11890" y="2146"><tspan fill="rgb(0,0,0)" stroke="none">symreg</tspan></tspan></tspan></text>
 <text class="TextShape"><tspan class="TextParagraph" font-family="DejaVu Sans, sans-serif" font-size="353px" font-weight="400"><tspan class="TextPosition" x="11890" y="2583"><tspan fill="rgb(0,0,0)" stroke="none">linreg</tspan></tspan></tspan></text>
 <text class="TextShape"><tspan class="TextParagraph" font-family="DejaVu Sans, sans-serif" font-size="318px" font-weight="400"><tspan class="TextPosition" x="5735" y="8806"><tspan fill="rgb(0,0,0)" stroke="none">Training time (seconds)</tspan></tspan></tspan></text>
 <text class="TextShape" transform="rotate(-90 516 5477)"><tspan class="TextParagraph" font-family="DejaVu Sans, sans-serif" font-size="318px" font-weight="400"><tspan class="TextPosition" x="516" y="5477"><tspan fill="rgb(0,0,0)" stroke="none">Error (MAE)</tspan></tspan></tspan></text>
</svg>